<svg xmlns="http://www.w3.org/2000/svg" xmlns:xlink="http://www.w3.org/1999/xlink" width="500" zoomAndPan="magnify" viewBox="0 0 375 374.999991" height="500" preserveAspectRatio="xMidYMid meet" version="1.0"><path fill="#ffffff" d="M 374.933594 187.5 C 374.933594 83.96875 291.101562 0 187.566406 0 C 84.035156 0 0.0664062 83.96875 0.0664062 187.5 C 0.0664062 291.03125 84.035156 375 187.566406 375 C 291.101562 375 375.066406 291.03125 375.066406 187.5 " fill-opacity="1" fill-rule="nonzero"/><path fill="#ce8c2d" d="M 200.882812 277.039062 C 199.117188 277.039062 197.351562 276.628906 195.585938 275.679688 C 186.210938 270.652344 177.242188 264.808594 168.953125 258.425781 C 162.023438 264.128906 157.40625 267.800781 156.726562 268.34375 C 151.835938 272.148438 144.769531 271.332031 140.964844 266.441406 C 137.160156 261.550781 137.976562 254.484375 142.867188 250.679688 C 142.867188 250.679688 146.398438 247.960938 151.699219 243.476562 C 123.4375 215.898438 106.316406 181.792969 108.355469 152.851562 C 109.851562 133.425781 120.175781 119.292969 137.703125 113.042969 C 154.550781 107.066406 170.992188 110.734375 181.726562 122.824219 C 181.996094 123.097656 182.132812 123.371094 182.40625 123.640625 C 190.421875 112.5 200.476562 104.621094 212.160156 101.085938 C 227.921875 96.195312 243.816406 100.273438 254.960938 111.683594 C 272.214844 129.484375 268.683594 151.085938 242.460938 186.003906 C 227.921875 205.300781 204.960938 227.175781 186.34375 243.476562 C 192.460938 247.960938 199.117188 252.039062 206.046875 255.84375 C 211.480469 258.695312 213.65625 265.488281 210.664062 271.058594 C 208.628906 274.863281 204.824219 277.039062 200.746094 277.039062 Z M 153.464844 132.746094 C 150.882812 132.746094 148.164062 133.289062 145.3125 134.238281 C 136.34375 137.5 131.589844 144.15625 130.773438 154.621094 C 129.28125 174.726562 143.136719 204.210938 168.953125 228.941406 C 187.160156 213.042969 210.53125 191.304688 224.523438 172.554688 C 249.933594 138.722656 243.003906 131.65625 238.789062 127.308594 C 233.628906 121.875 226.289062 120.246094 218.683594 122.554688 C 207.40625 125.949219 197.894531 137.226562 191.914062 153.804688 C 191.507812 160.734375 189.605469 167.800781 186.210938 174.59375 C 183.761719 179.484375 177.921875 181.929688 172.621094 180.164062 C 167.324219 178.398438 164.199219 172.960938 165.148438 167.527344 C 166.238281 161.414062 167.730469 155.570312 169.496094 150.136719 C 169.226562 144.972656 167.460938 140.625 164.878906 137.773438 C 161.886719 134.511719 157.949219 132.746094 153.328125 132.746094 Z M 153.464844 132.746094 " fill-opacity="1" fill-rule="nonzero"/></svg>