<svg xmlns="http://www.w3.org/2000/svg" xmlns:xlink="http://www.w3.org/1999/xlink" width="500" zoomAndPan="magnify" viewBox="0 0 375 374.999991" height="500" preserveAspectRatio="xMidYMid meet" version="1.0"><path fill="#ffffff" d="M 374.933594 187.5 C 374.933594 83.96875 291.101562 0 187.566406 0 C 84.035156 0 0.0664062 83.96875 0.0664062 187.5 C 0.0664062 291.03125 84.035156 375 187.566406 375 C 291.101562 375 375.066406 291.03125 375.066406 187.5 " fill-opacity="1" fill-rule="nonzero"/><path fill="#ce8c2d" d="M 307.269531 188.179688 C 305.910156 186.414062 280.230469 149.863281 225.882812 151.085938 C 230.09375 125.542969 225.203125 102.71875 215.285156 93.207031 L 212.160156 91.441406 C 210.121094 90.761719 162.296875 75.273438 116.644531 117.121094 C 87.433594 143.886719 84.441406 175.816406 85.394531 192.253906 C 86.34375 211.140625 93.136719 228.398438 102.511719 235.054688 C 108.085938 238.996094 116.238281 241.304688 126.289062 241.304688 C 129.550781 241.304688 133.21875 241.03125 136.753906 240.625 C 140.691406 248.640625 149.660156 256.523438 161.34375 262.773438 C 176.019531 270.515625 192.867188 274.726562 209.441406 274.726562 C 219.226562 274.726562 228.738281 273.234375 237.566406 270.515625 C 283.898438 256.113281 312.296875 213.316406 308.761719 191.304688 L 307.40625 188.042969 Z M 112.296875 221.875 C 108.355469 219.023438 102.785156 207.878906 101.835938 191.441406 C 100.882812 177.851562 103.328125 151.496094 127.785156 129.347656 C 149.933594 108.96875 172.351562 104.753906 187.839844 104.753906 C 195.855469 104.753906 201.835938 105.84375 204.6875 106.523438 C 209.851562 113.449219 212.839844 131.523438 208.628906 152.445312 C 174.253906 158.695312 155.230469 179.753906 146.808594 192.527344 C 139.878906 202.988281 135.53125 214.539062 134.578125 224.050781 C 123.300781 225.542969 115.011719 224.050781 112.160156 221.875 Z M 232.539062 254.753906 C 212.160156 261.140625 188.382812 258.558594 168.953125 248.371094 C 161.886719 244.566406 156.726562 240.351562 153.601562 236.820312 C 152.242188 235.054688 151.425781 233.558594 150.882812 232.199219 C 150.203125 230.027344 150.476562 225.273438 152.242188 219.835938 C 153.738281 214.675781 156.453125 208.558594 160.9375 202.039062 C 167.1875 192.527344 180.230469 177.582031 203.058594 171.195312 C 207.675781 169.835938 212.566406 168.75 217.867188 168.34375 C 219.226562 168.070312 220.585938 168.070312 221.671875 168.070312 C 224.117188 167.800781 226.15625 167.800781 228.328125 167.800781 C 266.644531 167.800781 287.023438 189.539062 292.1875 195.925781 C 291.914062 209.238281 271.128906 242.664062 232.539062 254.621094 Z M 232.539062 254.753906 " fill-opacity="1" fill-rule="nonzero"/><path fill="#ce8c2d" d="M 181.046875 127.445312 C 183.898438 126.496094 185.53125 123.371094 184.714844 120.515625 C 183.761719 117.527344 180.636719 116.03125 177.785156 116.847656 C 175.746094 117.527344 126.835938 133.425781 112.023438 193.613281 C 111.34375 196.601562 113.113281 199.59375 116.101562 200.273438 C 116.507812 200.273438 117.050781 200.40625 117.460938 200.40625 C 119.90625 200.40625 122.214844 198.777344 122.894531 196.195312 C 136.210938 142.253906 179.414062 127.988281 181.183594 127.445312 Z M 181.046875 127.445312 " fill-opacity="1" fill-rule="nonzero"/><path fill="#ce8c2d" d="M 192.730469 214.402344 C 209.988281 204.210938 227.921875 199.320312 247.078125 199.726562 C 250.339844 199.320312 252.785156 197.554688 252.785156 194.429688 C 253.058594 191.304688 250.613281 188.722656 247.488281 188.722656 C 234.171875 188.449219 221.535156 190.488281 208.898438 194.699219 C 201.15625 197.417969 193.546875 200.949219 186.074219 205.300781 C 183.628906 207.066406 182.8125 210.460938 184.308594 213.042969 C 185.394531 214.808594 187.160156 215.761719 188.925781 215.761719 C 190.011719 215.761719 190.964844 215.488281 191.78125 214.808594 C 192.050781 214.539062 192.460938 214.402344 192.730469 214.402344 Z M 192.730469 214.402344 " fill-opacity="1" fill-rule="nonzero"/><path fill="#ce8c2d" d="M 252.378906 211.957031 C 234.851562 222.554688 216.507812 227.71875 197.214844 227.039062 C 194.496094 227.445312 191.644531 229.484375 191.644531 232.609375 C 191.371094 235.460938 193.816406 238.179688 196.941406 238.179688 L 200.066406 238.179688 C 220.3125 238.179688 239.742188 232.609375 258.21875 221.601562 C 260.9375 220.109375 261.753906 216.441406 260.257812 214.128906 C 258.761719 211.414062 255.09375 210.597656 252.511719 212.09375 Z M 252.378906 211.957031 " fill-opacity="1" fill-rule="nonzero"/></svg>