<svg xmlns="http://www.w3.org/2000/svg" xmlns:xlink="http://www.w3.org/1999/xlink" width="500" zoomAndPan="magnify" viewBox="0 0 375 374.999991" height="500" preserveAspectRatio="xMidYMid meet" version="1.0"><path fill="#ffffff" d="M 374.933594 187.5 C 374.933594 83.96875 291.101562 0 187.566406 0 C 84.035156 0 0.0664062 83.96875 0.0664062 187.5 C 0.0664062 291.03125 84.035156 375 187.566406 375 C 291.101562 375 375.066406 291.03125 375.066406 187.5 " fill-opacity="1" fill-rule="nonzero"/><path fill="#ce8c2d" d="M 242.1875 195.789062 C 246.261719 202.308594 248.4375 210.191406 248.4375 219.566406 C 248.4375 227.851562 245.992188 235.597656 240.964844 242.800781 C 235.9375 250 229.144531 255.84375 220.3125 260.191406 C 211.480469 264.539062 201.425781 266.710938 190.285156 266.710938 C 167.59375 266.710938 150.203125 261.683594 137.976562 251.359375 C 125.746094 241.03125 122.214844 235.871094 122.214844 215.488281 C 122.214844 211.003906 123.574219 207.472656 126.289062 205.027344 C 129.007812 202.582031 132.675781 201.359375 137.296875 201.359375 C 146.671875 201.359375 151.425781 205.433594 151.425781 213.722656 C 151.425781 226.628906 152.242188 226.359375 158.898438 233.015625 C 165.558594 239.539062 175.476562 242.800781 188.519531 242.800781 C 197.078125 242.800781 204.550781 240.761719 210.800781 236.550781 C 217.050781 232.472656 220.175781 226.765625 220.175781 219.699219 C 220.175781 201.765625 209.714844 192.800781 188.789062 192.800781 C 184.714844 192.800781 181.726562 191.847656 179.824219 189.808594 C 177.921875 187.773438 176.96875 185.054688 176.96875 181.65625 C 176.96875 177.582031 177.785156 174.59375 179.6875 172.417969 C 181.453125 170.378906 184.441406 169.292969 188.65625 169.292969 C 198.03125 169.292969 204.824219 167.527344 209.035156 163.859375 C 213.246094 160.191406 215.285156 154.621094 215.285156 147.28125 C 215.285156 141.304688 213.246094 136.140625 209.035156 131.792969 C 204.824219 127.445312 199.386719 125.273438 192.730469 125.273438 C 185.394531 125.273438 179.550781 127.851562 174.253906 132.199219 C 170.039062 135.597656 168.003906 137.90625 168.003906 144.699219 C 168.003906 145.789062 168.003906 147.148438 168.273438 148.640625 C 168.410156 150.136719 168.683594 151.496094 168.953125 152.582031 C 169.496094 155.707031 168.410156 158.425781 166.101562 160.871094 C 163.65625 163.316406 159.988281 164.539062 154.960938 164.539062 C 151.835938 164.539062 149.117188 163.996094 146.535156 162.773438 C 144.089844 161.550781 142.324219 159.78125 141.371094 157.335938 C 140.285156 154.753906 139.46875 152.445312 139.199219 150.542969 C 138.925781 148.640625 138.65625 146.195312 138.65625 143.207031 C 138.65625 134.648438 141.507812 128.804688 144.769531 124.320312 C 149.796875 117.390625 156.316406 111.683594 164.742188 107.746094 C 173.03125 103.667969 182.269531 101.628906 192.324219 101.628906 C 202.378906 101.628906 210.664062 103.667969 218.816406 107.746094 C 226.96875 111.820312 233.355469 117.253906 238.246094 124.320312 C 243.136719 131.25 245.585938 138.996094 245.585938 147.417969 C 245.585938 155.164062 243.816406 161.957031 240.421875 167.664062 C 237.023438 173.371094 232.269531 177.851562 226.15625 180.84375 C 232.949219 184.375 238.382812 189.402344 242.59375 195.925781 Z M 242.1875 195.789062 " fill-opacity="1" fill-rule="nonzero"/></svg>