<?xml version="1.0" encoding="UTF-8"?>
<svg id="Calque_1" data-name="Calque 1" xmlns="http://www.w3.org/2000/svg" viewBox="0 0 27.59 27.6">
  <defs>
    <style>
      .cls-1 {
        fill: #fff;
      }

      .cls-2 {
        fill: #18213c;
      }
    </style>
  </defs>
  <path class="cls-2" d="M27.59,13.8C27.59,6.18,21.42,0,13.8,0S0,6.18,0,13.8s6.18,13.8,13.8,13.8,13.8-6.18,13.8-13.8"/>
  <path class="cls-1" d="M18.69,7.31h-1.85c-.53,0-.97.43-.97.97v.89h-1.63c-.53,0-.96.43-.96.97v.89h-1.63c-.53,0-.97.43-.97.97v.89h-1.63c-.53,0-.96.43-.96.97v2.97c0,.53.43.97.96.97h9.64c.53,0,.97-.43.97-.97v-8.53c0-.53-.43-.97-.97-.97ZM18.47,8.5v8.08h-1.41v-8.08h1.41ZM15.87,10.35v6.22h-1.41v-6.22h1.41ZM13.28,12.21v4.37h-1.41v-4.37h1.41ZM10.68,14.06v2.52h-1.41v-2.52h1.41Z"/>
</svg>