<?xml version="1.0" encoding="UTF-8"?>
<svg id="Calque_1" data-name="Calque 1" xmlns="http://www.w3.org/2000/svg" viewBox="0 0 27.59 27.6">
  <defs>
    <style>
      .cls-1 {
        fill: #fff;
      }

      .cls-2 {
        fill: #18213c;
      }
    </style>
  </defs>
  <path class="cls-2" d="M27.59,13.8C27.59,6.18,21.42,0,13.8,0S0,6.18,0,13.8s6.18,13.8,13.8,13.8,13.8-6.18,13.8-13.8"/>
  <path class="cls-1" d="M19.43,9.23c-.03-.18-.1-.35-.2-.51-.11-.16-.24-.29-.41-.38-.17-.09-.35-.14-.54-.14h-.65c-.03-.15-.09-.3-.19-.44-.16-.22-.4-.38-.67-.43-1.85-.38-3.71-.38-5.53,0-.27.05-.51.21-.67.44-.1.13-.16.28-.19.44h-.65c-.19,0-.38.05-.54.14-.16.09-.29.22-.41.38-.1.16-.17.33-.2.51-.03.18-.02.36.02.55.2.81.59,1.56,1.13,2.16.5.55,1.11.97,1.77,1.2.25.38.54.69.88.91v.2c0,.2.08.39.22.53.06.06.14.11.21.15v.33l-.03.04-.1.04c-.32.12-.75.28-.92.82-.17.04-.32.13-.44.25-.18.19-.28.43-.28.69v1.59c0,.25.1.5.28.68.18.18.43.28.69.28h4c.26,0,.5-.1.69-.28.18-.19.28-.43.28-.68v-1.59c0-.26-.1-.5-.28-.69-.12-.12-.27-.21-.44-.25-.18-.54-.62-.71-.92-.82l-.03.08s-.01,0-.02,0h-.02s0-.09,0-.09l-.05-.02-.03-.05v-.33c.08-.04.15-.09.21-.15.14-.14.22-.33.22-.53v-.2c.34-.22.63-.53.88-.91.66-.24,1.28-.65,1.77-1.2.54-.6.93-1.34,1.13-2.16.05-.18.05-.37.02-.55ZM12.09,18.61v-1.42h3.83v1.42h-3.83ZM17.56,9.26h.75s.03.03.05.05c.02.03.03.06.04.1,0,.04,0,.08,0,.12-.16.65-.47,1.24-.89,1.71-.1.11-.21.22-.33.32.21-.77.31-1.59.39-2.29ZM11.34,8.4l.12-.04c1.68-.35,3.4-.35,5.1,0l.04.05h0l-.05.45c-.19,1.69-.44,3.79-1.64,4.39-.2.08-.33.27-.33.49v.21c-.25.04-.44.26-.44.52v.78c0,.22.06.43.19.62.07.1.15.19.25.26h-1.13c.09-.07.18-.16.25-.26.12-.18.19-.39.19-.62v-.78c0-.26-.19-.47-.43-.52v-.21c0-.21-.13-.41-.31-.48-1.23-.62-1.47-2.72-1.66-4.4l-.05-.45h-.08s0,0,0-.01ZM10.45,9.25c.08.68.18,1.51.39,2.3-.11-.1-.22-.2-.33-.32-.43-.47-.74-1.06-.89-1.71-.01-.04-.01-.08,0-.12,0-.04.02-.07.04-.1.02-.03.04-.04.04-.05.01,0,.02,0,.03,0h.72Z"/>
</svg>