<?xml version="1.0" encoding="UTF-8"?>
<svg id="Calque_1" data-name="Calque 1" xmlns="http://www.w3.org/2000/svg" viewBox="0 0 27.59 27.6">
  <defs>
    <style>
      .cls-1 {
        fill: #fff;
      }

      .cls-2 {
        fill: #18213c;
      }
    </style>
  </defs>
  <path class="cls-2" d="M27.59,13.8C27.59,6.18,21.42,0,13.8,0S0,6.18,0,13.8s6.18,13.8,13.8,13.8,13.8-6.18,13.8-13.8"/>
  <g>
    <path class="cls-1" d="M16.37,12.21c.35,0,.67-.13.92-.38.24-.25.38-.57.38-.92s-.13-.67-.38-.92c-.25-.25-.57-.38-.92-.38h0c-.35,0-.67.13-.92.38-.25.25-.38.57-.38.92s.13.67.38.92.57.38.91.38h0ZM15.76,10.92c0-.16.06-.32.18-.43.12-.12.27-.18.43-.18h0c.16,0,.32.06.43.18.12.11.18.27.18.43s-.06.32-.18.43c-.24.24-.63.24-.87,0-.11-.11-.18-.27-.18-.43Z"/>
    <path class="cls-1" d="M20.27,7.77c.02-.18-.03-.36-.14-.5h0c-.11-.14-.27-.23-.45-.25-.06,0-.11,0-.16,0-3.22.39-5.71,1.65-7.41,3.75l-.51-.03c-.61-.03-1.17.2-1.59.61l-.96.96c-.11.11-.18.26-.18.43,0,.16.06.32.18.43.05.06.12.1.2.13l1.21.5c-.09.27-.16.54-.22.81-.04.17.01.34.14.47l1.81,1.81c.12.12.3.17.47.14.27-.06.55-.13.81-.22l.51,1.22c.09.23.31.38.56.38.08,0,.16-.02.23-.05.08-.03.14-.07.2-.13l.96-.96c.42-.42.64-1,.61-1.59l-.03-.51c2.1-1.7,3.36-4.19,3.75-7.41ZM15.53,15.74c.02.3-.1.6-.32.81l-.53.53-.46-1.09c-.08-.19-.26-.31-.47-.31-.06,0-.12.01-.18.03-.28.11-.57.2-.87.28l-1.41-1.41c.07-.29.17-.58.28-.87.1-.26-.02-.54-.28-.65l-1.09-.45.53-.53c.22-.22.51-.32.81-.31l.79.04c.16,0,.32-.08.41-.21,1.45-1.9,3.62-3.08,6.45-3.51-.43,2.83-1.61,5-3.51,6.45-.13.1-.21.26-.2.43l.04.77Z"/>
    <path class="cls-1" d="M11.85,16.98c-.11-.08-.25-.1-.39-.07-.24.06-.49.08-.74.05-.21-.03-.38-.19-.4-.4-.03-.25,0-.5.05-.74.03-.12.01-.25-.05-.36-.06-.11-.17-.19-.29-.22-.13-.03-.28,0-.39.07-.47.34-1.57,1.36-1.6,3.41,0,.13.05.26.14.36.09.1.22.15.37.15,2.06-.04,3.07-1.13,3.41-1.6.15-.21.1-.51-.11-.66h0ZM10.67,17.78c-.38.27-.96.55-1.79.63.07-.83.35-1.41.63-1.79,0,.01,0,.03,0,.04.07.59.53,1.04,1.12,1.12.01,0,.03,0,.04,0Z"/>
  </g>
</svg>