<?xml version="1.0" encoding="UTF-8"?>
<svg id="Calque_1" data-name="Calque 1" xmlns="http://www.w3.org/2000/svg" viewBox="0 0 27.59 27.6">
  <defs>
    <style>
      .cls-1 {
        fill: #fff;
      }

      .cls-2 {
        fill: #18213c;
      }
    </style>
  </defs>
  <path class="cls-2" d="M27.59,13.8C27.59,6.18,21.42,0,13.8,0S0,6.18,0,13.8s6.18,13.8,13.8,13.8,13.8-6.18,13.8-13.8"/>
  <path class="cls-1" d="M20.96,12.49c0-1.92-.75-3.73-2.11-5.09l-.3-.31-.83.76c-.51-.44-1.09-.79-1.71-1.04l-.06-.08-.07.03c-.68-.25-1.39-.38-2.12-.38-3.36,0-6.1,2.73-6.1,6.1,0,1.29.4,2.53,1.16,3.58l-.83.76.28.33c1.25,1.47,3.07,2.38,5,2.52v.15h-1.61c-.25,0-.45.2-.45.45s.2.45.45.45h3.96c.25,0,.45-.2.45-.45s-.2-.45-.45-.45h-1.46v-.15c3.81-.21,6.79-3.36,6.79-7.18ZM15.43,8.33l.03-.04-.03.04h0s.08.07.1.11c.02.03.03.13-.21.36-.19.19-.34.43-.42.67-.11.34-.07.65.1.82.06.07.22.46.3.75-.08-.03-.21-.11-.4-.25l-.04-.03c-.05-.04-.11-.08-.16-.11-.16-.11-.28-.29-.39-.48-.15-.23-.29-.45-.54-.58-.08-.04-.17-.06-.26-.06-.31,0-.6.27-.9.55-.13.12-.53.5-.66.5-.13,0-.22-.14-.35-.42-.06-.13-.12-.24-.21-.33-.11-.11-.4-.51-.46-.64-.02-.11-.08-.21-.17-.29-.1-.08-.22-.15-.65-.11.97-.95,2.29-1.5,3.64-1.5.49,0,.98.07,1.45.21-.2.45.1.73.22.83ZM10.75,10.43s.03.06.05.1v.03c.16.3.46.92,1.17.92.49,0,.92-.4,1.29-.75l.02-.02c.06-.06.13-.12.2-.18.02.02.03.05.05.07l.05.07c.14.22.33.52.64.73.05.03.1.07.15.1l.03.02c.25.18.6.43,1,.43.26,0,.5-.11.71-.32.42-.43-.27-1.69-.36-1.85.02-.07.08-.22.21-.36.48-.48.6-.94.38-1.4-.02-.03-.04-.07-.06-.1,1.64.91,2.69,2.67,2.69,4.55,0,.74-.15,1.45-.45,2.12l-.7-.2c-.11-.03-.22-.02-.32.03l-.49.25h-.55l-.31-.42s-.03-.03-.03-.04l-.44-.44c-.11-.11-.28-.16-.42-.12l-.58.15c-.13.03-.23.11-.29.23,0,0-.01.02-.02.03-.09-.02-.22-.05-.35-.08l-.34-.46c-.08-.11-.22-.18-.36-.18-.08,0-.49.01-.75.28,0,0,0,0-.01.02h-.4c-.24,0-.44.19-.44.43-.03-.09-.07-.18-.15-.26-.05-.05-.21-.38-.36-.75-.04-.11-.13-.19-.24-.23l-.44-.15s-.08-.02-.13-.02h-.59c-.19,0-.35.13-.39.32l-.15.73c-.04.21.09.41.29.46.12.03.25.08.33.11.05.1.13.17.24.22-.02.12-.07.24-.09.28-.07.15-.04.34.07.46.06.06.29.26.58.26.32,0,.48-.29.61-.52.02-.04.09-.16.11-.18.07-.07.21-.21.28-.38.02-.05.01-.11.02-.16v.55c0,.27.15.6.88.6.04,0,.23.04.5.1.02.02.04.04.05.06-.03.06-.06.13-.09.21-.04-.02-.08-.04-.12-.06l-.49-.17c-.14-.05-.28-.02-.4.06-.12.08-.19.22-.19.36v.29s0,.03-.01.05v.03c-.03.1-.06.22-.05.36h-.08c-.2,0-.36.12-.42.3-1.66-.92-2.69-2.66-2.69-4.55,0-.94.26-1.87.75-2.68.33-.06.67-.11.88-.14.11.19.37.57.54.73l.02.02ZM13.4,14.7c-.33-.08-.56-.13-.71-.15.18-.02.28-.08.43-.22l.26.34s.02.02.03.03ZM12.38,17.4c.13-.02.24-.09.34-.19.19-.19.21-.37.19-.49.09.02.16.03.23.03.19,0,.38-.08.52-.23.13-.14.22-.31.21-.47,0-.01.02-.04.03-.06.05-.1.12-.24.12-.42,0-.27-.22-.55-.41-.74.19.05.66.16.84.16.21,0,.42-.12.58-.35l.17-.04.23.23.43.57c.08.11.22.18.36.18h.88c.07,0,.14-.02.2-.05l.43-.22.33.09c-.97,1.43-2.58,2.28-4.3,2.28-.5,0-.99-.07-1.47-.21.03-.02.05-.05.09-.08ZM10.66,13.9s-.09-.05-.14-.07c-.08-.11-.23-.21-.44-.29v-.06h.21l.21.07c.06.13.11.25.16.36ZM9.41,16.75c1.14,1.17,2.73,1.84,4.36,1.84,3.36,0,6.1-2.74,6.1-6.1,0-1.47-.53-2.89-1.5-4l.15-.14c1,1.15,1.55,2.61,1.55,4.14,0,3.48-2.83,6.3-6.3,6.3-1.69,0-3.33-.69-4.51-1.9l.15-.14Z"/>
</svg>